<svg xmlns="http://www.w3.org/2000/svg" xmlns:bx="https://boxy-svg.com" viewBox="87.919 175.454 344.649 101.297"><g style="stroke:#000;stroke-width:.25mm;fill:#000"><path fill-rule="evenodd" stroke="none" stroke-linecap="round" stroke-width=".945" d="M65.404 54.2h-7.7c-2.333 4.4-5.616 7.933-9.85 10.6-4.233 2.667-8.883 4-13.95 4a25.509 25.509 0 0 1-18.648-7.789 32.365 32.365 0 0 1-.502-.511c-5.166-5.379-7.75-11.846-7.75-19.4 0-7.621 2.584-14.121 7.75-19.5 2.434-2.533 5.284-4.55 8.55-6.05a25.454 25.454 0 0 1 5.15-1.756 20.663 20.663 0 0 1 4.45-.494 35.819 35.819 0 0 1 3.893.201c1.574.172 3.026.455 4.357.849a26.684 26.684 0 0 1 16.277 13.036 32.771 32.771 0 0 1 .173.314h7.7a33.82 33.82 0 0 0-12.4-15.65c-5.706-3.967-12.039-5.95-19-5.95a32.048 32.048 0 0 0-23.473 9.76 40.068 40.068 0 0 0-.627.64c-3.066 3.2-5.466 6.917-7.2 11.15-1.733 4.233-2.6 8.717-2.6 13.45 0 9.516 3.267 17.683 9.8 24.5a33.37 33.37 0 0 0 12.148 8.265A32.995 32.995 0 0 0 33.904 76c6.931 0 13.298-2.017 19.1-6.05 5.744-3.992 9.877-9.242 12.4-15.75Zm179.2-40.7V7h-40.4v68h7V44.3h32.4v-6.6h-32.4V13.5h33.4ZM129.204 75h7V47.5a23.804 23.804 0 0 0-.562-5.323 16.253 16.253 0 0 0-3.438-7.027c-1.333-1.567-2.966-2.8-4.9-3.7-1.46-.68-3.264-1.103-5.41-1.269a28.395 28.395 0 0 0-2.19-.081 15.292 15.292 0 0 0-5.066.819 13.792 13.792 0 0 0-3.234 1.631 18.736 18.736 0 0 0-5.6 6.012V31h-7v44h7V56.6a36.406 36.406 0 0 1 .356-5.254c.263-1.804.673-3.446 1.23-4.929a17.026 17.026 0 0 1 1.564-3.167 13.835 13.835 0 0 1 4.55-4.45 10.797 10.797 0 0 1 2.971-1.213c.88-.223 1.838-.37 2.872-.439a21.672 21.672 0 0 1 1.457-.048c3 0 5.15 1.017 6.45 3.05 1.3 2.033 1.95 4.483 1.95 7.35V75Zm176.8 25V67.487c.393.514.81 1.018 1.25 1.513a21.046 21.046 0 0 0 6.716 5.139A19.934 19.934 0 0 0 322.604 76a19.608 19.608 0 0 0 14.56-6.152 24.993 24.993 0 0 0 .79-.848c4.034-4.529 6.05-9.862 6.05-16s-2.016-11.471-6.05-16a21.046 21.046 0 0 0-6.715-5.139A19.934 19.934 0 0 0 322.604 30a19.608 19.608 0 0 0-14.559 6.152 24.993 24.993 0 0 0-.791.848 26.021 26.021 0 0 0-1.25 1.513V31h-7v69h7Zm-115.3-37.9h-8a16.173 16.173 0 0 1-5.75 4.85c-2.3 1.167-4.716 1.75-7.25 1.75a15.81 15.81 0 0 1-10.2-3.7c-2.992-2.422-4.825-5.522-5.5-9.3h38.7V52a20.84 20.84 0 0 0-6.47-15.232 27.512 27.512 0 0 0-.48-.468c-4.55-4.333-9.9-6.5-16.05-6.5a22.122 22.122 0 0 0-16.038 6.541 26.946 26.946 0 0 0-.212.209 22.127 22.127 0 0 0-6.748 15.954 26.56 26.56 0 0 0-.002.296 22.2 22.2 0 0 0 2.637 10.808A23.039 23.039 0 0 0 153.454 69c2.1 2.067 4.534 3.7 7.3 4.9 2.504 1.086 5.471 1.68 8.902 1.784a36.48 36.48 0 0 0 1.098.016 19.71 19.71 0 0 0 8.306-1.886 25.593 25.593 0 0 0 3.194-1.764c3.767-2.433 6.584-5.75 8.45-9.95Zm70.4 12.9V0h-7v75h7Zm-177.7 0V31h-7v44h7Zm200.2 0V31h-7v44h7Zm53.4-22c0 4.283-1.483 8.016-4.45 11.2a14.447 14.447 0 0 1-10.438 4.789 17.632 17.632 0 0 1-.612.011 14.453 14.453 0 0 1-10.626-4.361 17.505 17.505 0 0 1-.424-.439c-2.966-3.184-4.45-6.917-4.45-11.2 0-4.283 1.484-8.016 4.45-11.2a14.447 14.447 0 0 1 10.438-4.789 17.632 17.632 0 0 1 .612-.011 14.453 14.453 0 0 1 10.626 4.361 17.505 17.505 0 0 1 .424.439c2.967 3.184 4.45 6.917 4.45 11.2Zm-151.7-3.3h-31.2a15.54 15.54 0 0 1 2.1-5.15 18.51 18.51 0 0 1 3.924-4.491 14.758 14.758 0 0 1 9.576-3.259c3.74 0 7.056 1.2 9.95 3.6 2.965 2.459 4.849 5.559 5.65 9.3Zm-102.3-33.9a4.284 4.284 0 0 0-3.092-1.3 5.232 5.232 0 0 0-.058 0 4.285 4.285 0 0 0-3.109 1.26 5.129 5.129 0 0 0-.041.04 4.284 4.284 0 0 0-1.299 3.092 5.232 5.232 0 0 0-.001.058 4.285 4.285 0 0 0 1.26 3.109 5.129 5.129 0 0 0 .04.041 4.284 4.284 0 0 0 3.093 1.3 5.232 5.232 0 0 0 .057 0 4.285 4.285 0 0 0 3.11-1.26 5.129 5.129 0 0 0 .04-.04 4.284 4.284 0 0 0 1.3-3.092 5.232 5.232 0 0 0 0-.058 4.285 4.285 0 0 0-1.259-3.109 5.129 5.129 0 0 0-.041-.041Zm200.2 0a4.284 4.284 0 0 0-3.092-1.3 5.232 5.232 0 0 0-.058 0 4.285 4.285 0 0 0-3.109 1.26 5.129 5.129 0 0 0-.041.04 4.284 4.284 0 0 0-1.299 3.092 5.232 5.232 0 0 0-.001.058 4.285 4.285 0 0 0 1.26 3.109 5.129 5.129 0 0 0 .04.041 4.284 4.284 0 0 0 3.093 1.3 5.232 5.232 0 0 0 .057 0 4.285 4.285 0 0 0 3.11-1.26 5.129 5.129 0 0 0 .04-.04 4.284 4.284 0 0 0 1.3-3.092 5.232 5.232 0 0 0 0-.058 4.285 4.285 0 0 0-1.259-3.109 5.129 5.129 0 0 0-.041-.041Z" font-size="12" style="fill:#fff;stroke-width:0" transform="matrix(1.00189 0 0 1.01297 87.915 175.454)" vector-effect="non-scaling-stroke"/></g><path bx:shape="triangle 220.042 299.393 15.572 17.978 0.5 0.14 1@68f60e59" d="M226.738 301.91q1.09-2.517 2.18 0l5.606 12.944q1.09 2.517-1.09 2.517h-11.212q-2.18 0-1.09-2.517Z" style="stroke:#000;paint-order:fill markers;fill:#ffd500;stroke-width:0;transform-origin:134.091px 214.407px" transform="rotate(90 223.021 109.387)"/></svg>