<svg xmlns="http://www.w3.org/2000/svg" width="1024" height="1024" style="shape-rendering:geometricPrecision;text-rendering:geometricPrecision;image-rendering:optimizeQuality;fill-rule:evenodd;clip-rule:evenodd"><path fill="#fe0000" d="M74.5-.5h874c41.333 8.667 66.33 33.667 75 75v874c-8.67 41.333-33.667 66.33-75 75h-874c-41.333-8.67-66.333-33.667-75-75v-874c8.667-41.333 33.667-66.333 75-75Z" style="opacity:1"/><path fill="#fffefe" d="M608.5 340.5a1803.647 1803.647 0 0 0 0 120c.607-.124.94-.457 1-1 20.612-26.161 47.612-36.994 81-32.5 30.054 3.273 50.22 19.106 60.5 47.5a188.72 188.72 0 0 1 8 42c.667 37.333.667 74.667 0 112-1.453 25.718-6.453 50.718-15 75-9.715 22.715-26.215 38.215-49.5 46.5-38.044 11.492-76.378 12.492-115 3-32.833-8.833-53.667-29.667-62.5-62.5a315.356 315.356 0 0 1-11-72c-.667-82.667-.667-165.333 0-248 .546-30.172 6.546-59.172 18-87 10.785-19.997 26.952-33.83 48.5-41.5 19.852-6.19 40.186-9.023 61-8.5 26.467-.589 52.134 3.578 77 12.5 24.262 11.618 38.762 30.785 43.5 57.5a283.789 283.789 0 0 1 5.5 60h-103c.615-17.13-.552-34.13-3.5-51-5.956-16.199-16.789-20.699-32.5-13.5-5.121 4.74-8.288 10.573-9.5 17.5a98.328 98.328 0 0 0-2.5 24ZM336.5 241.5h86v509h-98c.167-126 0-252-.5-378-17.048 17.609-37.215 30.275-60.5 38-.333-30.341 0-60.674 1-91 26.166-14.665 47.332-34.665 63.5-60a220.187 220.187 0 0 0 8.5-18Z" style="opacity:1"/><path fill="#ff8a8a" d="M608.5 340.5c-.332 39.837.001 79.504 1 119-.06.543-.393.876-1 1a1803.647 1803.647 0 0 1 0-120Z" style="opacity:1"/><path fill="#fe0703" d="M625.5 500.5c14.46-2.534 23.626 3.132 27.5 17a135.586 135.586 0 0 1 3 26c.667 36 .667 72 0 108a916.602 916.602 0 0 0-2 19c-.634 8.93-4.134 16.43-10.5 22.5-16.808 7.346-27.642 2.179-32.5-15.5a294.505 294.505 0 0 1-2-16 2419.128 2419.128 0 0 1 1-136c1.185-11.081 6.352-19.415 15.5-25Z" style="opacity:1"/></svg>