<svg xmlns="http://www.w3.org/2000/svg" width="2048" height="2048" style="shape-rendering:geometricPrecision;text-rendering:geometricPrecision;image-rendering:optimizeQuality;fill-rule:evenodd;clip-rule:evenodd"><path fill="#fc0" d="M157.5-.5h1732c76.16 11.658 126.66 53.992 151.5 127 2.77 10.35 4.94 20.684 6.5 31v1732c-11.66 76.16-53.99 126.66-127 151.5-10.35 2.77-20.68 4.94-31 6.5h-1732c-76.162-11.66-126.662-53.99-151.5-127a285.429 285.429 0 0 1-6.5-31v-1732C11.158 81.338 53.492 30.838 126.5 6a285.628 285.628 0 0 1 31-6.5Z" style="opacity:1"/><path fill="#fffefe" d="M1246.5 506.5a658.39 658.39 0 0 1 115 7.5c36.02 5.551 68.69 18.885 98 40 23.96 21.741 40.46 48.241 49.5 79.5a441.225 441.225 0 0 1 17 102 666.26 666.26 0 0 1-4 131c-8.63 50.574-25.97 97.907-52 142a971.967 971.967 0 0 1-32 50L1207.5 1385c112.33.5 224.67.67 337 .5v155h-545c-.167-63.67 0-127.33.5-191 85.33-124.67 170.67-249.33 256-374 23.76-37.198 42.43-76.864 56-119a208.482 208.482 0 0 0 9-48c.8-34.678.47-69.345-1-104a184.855 184.855 0 0 0-9-48c-11.25-21.993-29.09-30.16-53.5-24.5-12.2 3.845-20.7 11.678-25.5 23.5-6.01 16.449-9.35 33.449-10 51a1683.582 1683.582 0 0 0-1.5 91h-206c-1.94-53.89 3.89-106.89 17.5-159 8.84-31.122 24.67-57.955 47.5-80.5 31.45-24.546 67.12-39.546 107-45a924.208 924.208 0 0 1 60-6.5ZM658.5 1540.5c.333-252.33 0-504.67-1-757-.607.124-.94.457-1 1-33.578 35.022-73.411 60.689-119.5 77a5581.892 5581.892 0 0 1 .5-183c48.848-26.678 89.014-63.012 120.5-109a359.983 359.983 0 0 0 23.5-45c57.663-1 115.329-1.333 173-1v1017h-196Z" style="opacity:1"/><path fill="#fffae4" d="M656.5 784.5c.06-.543.393-.876 1-1 1 252.33 1.333 504.67 1 757l-2-756Z" style="opacity:1"/></svg>