<svg xmlns="http://www.w3.org/2000/svg" width="1024" height="1024" style="shape-rendering:geometricPrecision;text-rendering:geometricPrecision;image-rendering:optimizeQuality;fill-rule:evenodd;clip-rule:evenodd"><path fill="#00af51" d="M1020.5 863.5c-.33 16.175 0 32.175 1 48 5.35 39.09-7.32 70.59-38 94.5-15.474 10.6-32.641 15.77-51.5 15.5-56.473-.72-112.973-1.05-169.5-1v3h-1v-3h-352v3h-1v-3c-111.667.17-223.334 0-335-.5-41.724-9.39-65.89-35.225-72.5-77.5a3024.35 3024.35 0 0 0-1.5-78v-1a8450.502 8450.502 0 0 0 0-260v-12c1.333-64 1.333-128 0-192v-19C.02 277.98.854 175.314 2 72.5 10.833 34.333 34.333 10.833 72.5 2a203.427 203.427 0 0 1 21-1.5c278.72.17 557.387.17 836 0 46.451.967 76.28 23.634 89.5 68a207.378 207.378 0 0 1 2.5 25.5c-.99 256.495-1.33 512.995-1 769.5Z" style="opacity:.999"/><path fill="#fdfefe" d="M371.5 285.5h126v366h202c.329 29.24-.005 58.407-1 87.5-108.903.832-217.736.665-326.5-.5-.5-151-.667-302-.5-453Z" style="opacity:1"/><path fill="#ccac6e" d="M1020.5 863.5h3v1c-1.98 15.298-2.65 30.964-2 47-1-15.825-1.33-31.825-1-48Z" style="opacity:.012"/></svg>