<?xml version="1.0" encoding="UTF-8"?>
<!DOCTYPE svg PUBLIC "-//W3C//DTD SVG 1.1//EN" "http://www.w3.org/Graphics/SVG/1.1/DTD/svg11.dtd">
<svg xmlns="http://www.w3.org/2000/svg" version="1.1" width="1024px" height="1024px" style="shape-rendering:geometricPrecision; text-rendering:geometricPrecision; image-rendering:optimizeQuality; fill-rule:evenodd; clip-rule:evenodd" xmlns:xlink="http://www.w3.org/1999/xlink">
<g><path style="opacity:0.999" fill="#00af51" d="M 1020.5,863.5 C 1020.17,879.675 1020.5,895.675 1021.5,911.5C 1026.85,950.59 1014.18,982.09 983.5,1006C 968.026,1016.6 950.859,1021.77 932,1021.5C 875.527,1020.78 819.027,1020.45 762.5,1020.5C 762.5,1021.5 762.5,1022.5 762.5,1023.5C 762.167,1023.5 761.833,1023.5 761.5,1023.5C 761.5,1022.5 761.5,1021.5 761.5,1020.5C 644.167,1020.5 526.833,1020.5 409.5,1020.5C 409.5,1021.5 409.5,1022.5 409.5,1023.5C 409.167,1023.5 408.833,1023.5 408.5,1023.5C 408.5,1022.5 408.5,1021.5 408.5,1020.5C 296.833,1020.67 185.166,1020.5 73.5,1020C 31.7758,1010.61 7.60913,984.775 1,942.5C 0.832206,916.33 0.332206,890.33 -0.5,864.5C -0.5,864.167 -0.5,863.833 -0.5,863.5C 0.833333,776.833 0.833333,690.167 -0.5,603.5C -0.5,599.5 -0.5,595.5 -0.5,591.5C 0.833333,527.5 0.833333,463.5 -0.5,399.5C -0.5,393.167 -0.5,386.833 -0.5,380.5C 0.0202886,277.98 0.853622,175.314 2,72.5C 10.8333,34.3333 34.3333,10.8333 72.5,2C 79.4739,1.13754 86.4739,0.637545 93.5,0.5C 372.22,0.669081 650.887,0.669081 929.5,0.5C 975.951,1.46704 1005.78,24.1337 1019,68.5C 1020.36,76.9423 1021.19,85.4423 1021.5,94C 1020.51,350.495 1020.17,606.995 1020.5,863.5 Z"/></g>
<g><path style="opacity:1" fill="#fdfefe" d="M 371.5,285.5 C 413.5,285.5 455.5,285.5 497.5,285.5C 497.5,407.5 497.5,529.5 497.5,651.5C 564.833,651.5 632.167,651.5 699.5,651.5C 699.829,680.74 699.495,709.907 698.5,739C 589.597,739.832 480.764,739.665 372,738.5C 371.5,587.5 371.333,436.5 371.5,285.5 Z"/></g>
<g><path style="opacity:0.012" fill="#ccac6e" d="M 1020.5,863.5 C 1021.5,863.5 1022.5,863.5 1023.5,863.5C 1023.5,863.833 1023.5,864.167 1023.5,864.5C 1021.52,879.798 1020.85,895.464 1021.5,911.5C 1020.5,895.675 1020.17,879.675 1020.5,863.5 Z"/></g>
</svg>
