<?xml version="1.0" encoding="UTF-8"?>
<!DOCTYPE svg PUBLIC "-//W3C//DTD SVG 1.1//EN" "http://www.w3.org/Graphics/SVG/1.1/DTD/svg11.dtd">
<svg xmlns="http://www.w3.org/2000/svg" version="1.1" width="1024px" height="1024px" style="shape-rendering:geometricPrecision; text-rendering:geometricPrecision; image-rendering:optimizeQuality; fill-rule:evenodd; clip-rule:evenodd" xmlns:xlink="http://www.w3.org/1999/xlink">
<g><path style="opacity:1" fill="#fe0000" d="M 74.5,-0.5 C 365.833,-0.5 657.167,-0.5 948.5,-0.5C 989.833,8.16667 1014.83,33.1667 1023.5,74.5C 1023.5,365.833 1023.5,657.167 1023.5,948.5C 1014.83,989.833 989.833,1014.83 948.5,1023.5C 657.167,1023.5 365.833,1023.5 74.5,1023.5C 33.1667,1014.83 8.16667,989.833 -0.5,948.5C -0.5,657.167 -0.5,365.833 -0.5,74.5C 8.16667,33.1667 33.1667,8.16667 74.5,-0.5 Z"/></g>
<g><path style="opacity:1" fill="#fffefe" d="M 608.5,340.5 C 607.169,380.335 607.169,420.335 608.5,460.5C 609.107,460.376 609.44,460.043 609.5,459.5C 630.112,433.339 657.112,422.506 690.5,427C 720.554,430.273 740.72,446.106 751,474.5C 755.258,488.197 757.924,502.197 759,516.5C 759.667,553.833 759.667,591.167 759,628.5C 757.547,654.218 752.547,679.218 744,703.5C 734.285,726.215 717.785,741.715 694.5,750C 656.456,761.492 618.122,762.492 579.5,753C 546.667,744.167 525.833,723.333 517,690.5C 510.554,666.937 506.888,642.937 506,618.5C 505.333,535.833 505.333,453.167 506,370.5C 506.546,340.328 512.546,311.328 524,283.5C 534.785,263.503 550.952,249.67 572.5,242C 592.352,235.81 612.686,232.977 633.5,233.5C 659.967,232.911 685.634,237.078 710.5,246C 734.762,257.618 749.262,276.785 754,303.5C 757.962,323.298 759.795,343.298 759.5,363.5C 725.167,363.5 690.833,363.5 656.5,363.5C 657.115,346.37 655.948,329.37 653,312.5C 647.044,296.301 636.211,291.801 620.5,299C 615.379,303.74 612.212,309.573 611,316.5C 609.181,324.399 608.348,332.399 608.5,340.5 Z"/></g>
<g><path style="opacity:1" fill="#fffefe" d="M 336.5,241.5 C 365.167,241.5 393.833,241.5 422.5,241.5C 422.5,411.167 422.5,580.833 422.5,750.5C 389.833,750.5 357.167,750.5 324.5,750.5C 324.667,624.5 324.5,498.5 324,372.5C 306.952,390.109 286.785,402.775 263.5,410.5C 263.167,380.159 263.5,349.826 264.5,319.5C 290.666,304.835 311.832,284.835 328,259.5C 331.12,253.595 333.954,247.595 336.5,241.5 Z"/></g>
<g><path style="opacity:1" fill="#ff8a8a" d="M 608.5,340.5 C 608.168,380.337 608.501,420.004 609.5,459.5C 609.44,460.043 609.107,460.376 608.5,460.5C 607.169,420.335 607.169,380.335 608.5,340.5 Z"/></g>
<g><path style="opacity:1" fill="#fe0703" d="M 625.5,500.5 C 639.96,497.966 649.126,503.632 653,517.5C 654.838,526.066 655.838,534.733 656,543.5C 656.667,579.5 656.667,615.5 656,651.5C 655.267,657.826 654.601,664.16 654,670.5C 653.366,679.43 649.866,686.93 643.5,693C 626.692,700.346 615.858,695.179 611,677.5C 610.187,672.185 609.521,666.852 609,661.5C 608.059,616.147 608.392,570.814 610,525.5C 611.185,514.419 616.352,506.085 625.5,500.5 Z"/></g>
</svg>
